<mxfile host="app.diagrams.net" modified="2024-05-19T17:46:08.092Z" agent="Mozilla/5.0 (Windows NT 10.0; Win64; x64) AppleWebKit/537.36 (KHTML, like Gecko) Chrome/124.0.0.0 Safari/537.36" etag="N-g8WORPhh8xghtophU9" version="24.4.4" type="device">
  <diagram name="Page-1" id="dQ5BMV20sx4ThZoirGmu">
    <mxGraphModel dx="1877" dy="522" grid="1" gridSize="10" guides="1" tooltips="1" connect="1" arrows="1" fold="1" page="1" pageScale="1" pageWidth="827" pageHeight="1169" math="0" shadow="0">
      <root>
        <mxCell id="0" />
        <mxCell id="1" parent="0" />
        <mxCell id="fApwO7AzvbHGPvJC-P2w-2" value="" style="whiteSpace=wrap;html=1;aspect=fixed;labelBackgroundColor=none;fillColor=#FAE5C7;strokeColor=#0F8B8D;fontColor=#143642;sketch=1;curveFitting=1;jiggle=2;" vertex="1" parent="1">
          <mxGeometry x="390" y="420" width="80" height="80" as="geometry" />
        </mxCell>
        <mxCell id="fApwO7AzvbHGPvJC-P2w-3" value="" style="rounded=1;whiteSpace=wrap;html=1;labelBackgroundColor=none;fillColor=#FAE5C7;strokeColor=#0F8B8D;fontColor=#143642;sketch=1;curveFitting=1;jiggle=2;" vertex="1" parent="1">
          <mxGeometry x="140" y="350" width="416" height="210" as="geometry" />
        </mxCell>
        <mxCell id="fApwO7AzvbHGPvJC-P2w-6" value="URL&amp;nbsp; &amp;nbsp;Patterns" style="whiteSpace=wrap;html=1;aspect=fixed;fillColor=#FAE5C7;strokeColor=#0F8B8D;labelBackgroundColor=none;fontColor=#143642;sketch=1;curveFitting=1;jiggle=2;" vertex="1" parent="1">
          <mxGeometry x="200" y="370" width="60" height="60" as="geometry" />
        </mxCell>
        <mxCell id="fApwO7AzvbHGPvJC-P2w-7" value="Views" style="whiteSpace=wrap;html=1;aspect=fixed;fillColor=#FAE5C7;strokeColor=#0F8B8D;labelBackgroundColor=none;fontColor=#143642;sketch=1;curveFitting=1;jiggle=2;" vertex="1" parent="1">
          <mxGeometry x="200" y="470" width="60" height="60" as="geometry" />
        </mxCell>
        <mxCell id="fApwO7AzvbHGPvJC-P2w-8" value="Auth Models" style="rounded=1;whiteSpace=wrap;html=1;fillColor=#FAE5C7;strokeColor=#0F8B8D;labelBackgroundColor=none;fontColor=#143642;sketch=1;curveFitting=1;jiggle=2;" vertex="1" parent="1">
          <mxGeometry x="370" y="480" width="120" height="60" as="geometry" />
        </mxCell>
        <mxCell id="fApwO7AzvbHGPvJC-P2w-9" value="Serializer" style="rounded=1;whiteSpace=wrap;html=1;fillColor=#FAE5C7;strokeColor=#0F8B8D;labelBackgroundColor=none;fontColor=#143642;sketch=1;curveFitting=1;jiggle=2;" vertex="1" parent="1">
          <mxGeometry x="370" y="370" width="120" height="60" as="geometry" />
        </mxCell>
        <mxCell id="fApwO7AzvbHGPvJC-P2w-15" value="" style="shape=flexArrow;endArrow=classic;html=1;rounded=0;fillColor=#FAE5C7;strokeColor=#A8201A;labelBackgroundColor=none;fontColor=default;sketch=1;curveFitting=1;jiggle=2;" edge="1" parent="1">
          <mxGeometry width="50" height="50" relative="1" as="geometry">
            <mxPoint x="260" y="500.5" as="sourcePoint" />
            <mxPoint x="370" y="500" as="targetPoint" />
            <Array as="points">
              <mxPoint x="320" y="500.5" />
            </Array>
          </mxGeometry>
        </mxCell>
        <mxCell id="fApwO7AzvbHGPvJC-P2w-17" value="" style="shape=flexArrow;endArrow=classic;html=1;rounded=0;fillColor=#FAE5C7;strokeColor=#A8201A;labelBackgroundColor=none;fontColor=default;sketch=1;curveFitting=1;jiggle=2;" edge="1" parent="1" target="fApwO7AzvbHGPvJC-P2w-9">
          <mxGeometry width="50" height="50" relative="1" as="geometry">
            <mxPoint x="260" y="470.5" as="sourcePoint" />
            <mxPoint x="370" y="470" as="targetPoint" />
          </mxGeometry>
        </mxCell>
        <mxCell id="fApwO7AzvbHGPvJC-P2w-24" value="" style="shape=flexArrow;endArrow=classic;html=1;rounded=0;endWidth=17;endSize=7.43;width=9;fillColor=#FAE5C7;strokeColor=#A8201A;entryX=0.5;entryY=0;entryDx=0;entryDy=0;labelBackgroundColor=none;fontColor=default;sketch=1;curveFitting=1;jiggle=2;" edge="1" parent="1" source="fApwO7AzvbHGPvJC-P2w-9" target="fApwO7AzvbHGPvJC-P2w-8">
          <mxGeometry width="50" height="50" relative="1" as="geometry">
            <mxPoint x="440" y="430" as="sourcePoint" />
            <mxPoint x="390" y="480" as="targetPoint" />
          </mxGeometry>
        </mxCell>
        <mxCell id="fApwO7AzvbHGPvJC-P2w-26" value="" style="shape=flexArrow;endArrow=classic;html=1;rounded=0;width=14;endSize=5.98;exitX=0.5;exitY=1;exitDx=0;exitDy=0;entryX=0.367;entryY=-0.013;entryDx=0;entryDy=0;fillColor=#FAE5C7;strokeColor=#A8201A;entryPerimeter=0;labelBackgroundColor=none;fontColor=default;sketch=1;curveFitting=1;jiggle=2;" edge="1" parent="1" source="fApwO7AzvbHGPvJC-P2w-6" target="fApwO7AzvbHGPvJC-P2w-7">
          <mxGeometry width="50" height="50" relative="1" as="geometry">
            <mxPoint x="230" y="440" as="sourcePoint" />
            <mxPoint x="180" y="490" as="targetPoint" />
          </mxGeometry>
        </mxCell>
        <mxCell id="fApwO7AzvbHGPvJC-P2w-28" value="" style="shape=flexArrow;endArrow=classic;html=1;rounded=0;entryX=0;entryY=0.5;entryDx=0;entryDy=0;fillColor=#FAE5C7;strokeColor=#A8201A;labelBackgroundColor=none;fontColor=default;sketch=1;curveFitting=1;jiggle=2;" edge="1" parent="1" target="fApwO7AzvbHGPvJC-P2w-6">
          <mxGeometry width="50" height="50" relative="1" as="geometry">
            <mxPoint x="60" y="400" as="sourcePoint" />
            <mxPoint x="120" y="390" as="targetPoint" />
          </mxGeometry>
        </mxCell>
        <mxCell id="fApwO7AzvbHGPvJC-P2w-29" value="" style="shape=flexArrow;endArrow=classic;html=1;rounded=0;entryX=0;entryY=0.5;entryDx=0;entryDy=0;fillColor=#FAE5C7;strokeColor=#A8201A;exitX=0;exitY=0.5;exitDx=0;exitDy=0;labelBackgroundColor=none;fontColor=default;sketch=1;curveFitting=1;jiggle=2;" edge="1" parent="1" source="fApwO7AzvbHGPvJC-P2w-7">
          <mxGeometry width="50" height="50" relative="1" as="geometry">
            <mxPoint x="190" y="500" as="sourcePoint" />
            <mxPoint x="60" y="500" as="targetPoint" />
          </mxGeometry>
        </mxCell>
        <mxCell id="fApwO7AzvbHGPvJC-P2w-30" value="REQUEST" style="text;html=1;align=center;verticalAlign=middle;resizable=0;points=[];autosize=1;strokeColor=#0F8B8D;fillColor=#FAE5C7;labelBackgroundColor=none;fontColor=#143642;sketch=1;curveFitting=1;jiggle=2;" vertex="1" parent="1">
          <mxGeometry x="-20" y="385" width="80" height="30" as="geometry" />
        </mxCell>
        <mxCell id="fApwO7AzvbHGPvJC-P2w-31" value="RESPONSE" style="text;html=1;align=center;verticalAlign=middle;resizable=0;points=[];autosize=1;strokeColor=#0F8B8D;fillColor=#FAE5C7;labelBackgroundColor=none;fontColor=#143642;sketch=1;curveFitting=1;jiggle=2;" vertex="1" parent="1">
          <mxGeometry x="-30" y="485" width="90" height="30" as="geometry" />
        </mxCell>
        <mxCell id="fApwO7AzvbHGPvJC-P2w-33" value="SQLITE" style="shape=cylinder3;whiteSpace=wrap;html=1;boundedLbl=1;backgroundOutline=1;size=15;labelBackgroundColor=none;fillColor=#FAE5C7;strokeColor=#0F8B8D;fontColor=#143642;sketch=1;curveFitting=1;jiggle=2;" vertex="1" parent="1">
          <mxGeometry x="610" y="460" width="60" height="90" as="geometry" />
        </mxCell>
        <mxCell id="fApwO7AzvbHGPvJC-P2w-34" value="" style="shape=flexArrow;endArrow=classic;html=1;rounded=0;exitX=1;exitY=0.5;exitDx=0;exitDy=0;entryX=0;entryY=0;entryDx=0;entryDy=52.5;entryPerimeter=0;fillColor=#FAE5C7;strokeColor=#A8201A;labelBackgroundColor=none;fontColor=default;sketch=1;curveFitting=1;jiggle=2;" edge="1" parent="1" source="fApwO7AzvbHGPvJC-P2w-8" target="fApwO7AzvbHGPvJC-P2w-33">
          <mxGeometry width="50" height="50" relative="1" as="geometry">
            <mxPoint x="560" y="540" as="sourcePoint" />
            <mxPoint x="610" y="490" as="targetPoint" />
          </mxGeometry>
        </mxCell>
        <mxCell id="fApwO7AzvbHGPvJC-P2w-38" value="&lt;b&gt;QUANTACO USER APP&lt;/b&gt;" style="text;html=1;align=center;verticalAlign=middle;resizable=0;points=[];autosize=1;strokeColor=#0F8B8D;fillColor=#FAE5C7;fontColor=#143642;labelBackgroundColor=none;sketch=1;curveFitting=1;jiggle=2;" vertex="1" parent="1">
          <mxGeometry x="570" y="370" width="160" height="30" as="geometry" />
        </mxCell>
        <mxCell id="fApwO7AzvbHGPvJC-P2w-39" value="HTTP" style="rounded=1;whiteSpace=wrap;html=1;strokeColor=#0F8B8D;fontColor=#143642;fillColor=#FAE5C7;sketch=1;curveFitting=1;jiggle=2;" vertex="1" parent="1">
          <mxGeometry x="-45" y="440" width="120" height="30" as="geometry" />
        </mxCell>
        <mxCell id="fApwO7AzvbHGPvJC-P2w-42" value="" style="rounded=1;whiteSpace=wrap;html=1;labelBackgroundColor=none;fillColor=#FAE5C7;strokeColor=#0F8B8D;fontColor=#143642;sketch=1;curveFitting=1;jiggle=2;" vertex="1" parent="1">
          <mxGeometry x="120" y="635" width="416" height="210" as="geometry" />
        </mxCell>
        <mxCell id="fApwO7AzvbHGPvJC-P2w-43" value="URL&amp;nbsp; &amp;nbsp;Patterns" style="whiteSpace=wrap;html=1;aspect=fixed;fillColor=#FAE5C7;strokeColor=#0F8B8D;labelBackgroundColor=none;fontColor=#143642;sketch=1;curveFitting=1;jiggle=2;" vertex="1" parent="1">
          <mxGeometry x="170" y="660" width="60" height="60" as="geometry" />
        </mxCell>
        <mxCell id="fApwO7AzvbHGPvJC-P2w-54" value="Views" style="whiteSpace=wrap;html=1;aspect=fixed;fillColor=#FAE5C7;strokeColor=#0F8B8D;labelBackgroundColor=none;fontColor=#143642;sketch=1;curveFitting=1;jiggle=2;" vertex="1" parent="1">
          <mxGeometry x="170" y="760" width="60" height="60" as="geometry" />
        </mxCell>
        <mxCell id="fApwO7AzvbHGPvJC-P2w-55" value="" style="shape=flexArrow;endArrow=classic;html=1;rounded=0;width=14;endSize=5.98;exitX=0.5;exitY=1;exitDx=0;exitDy=0;entryX=0.367;entryY=-0.013;entryDx=0;entryDy=0;fillColor=#FAE5C7;strokeColor=#A8201A;entryPerimeter=0;labelBackgroundColor=none;fontColor=default;sketch=1;curveFitting=1;jiggle=2;" edge="1" parent="1" target="fApwO7AzvbHGPvJC-P2w-54">
          <mxGeometry width="50" height="50" relative="1" as="geometry">
            <mxPoint x="200" y="720" as="sourcePoint" />
            <mxPoint x="150" y="780" as="targetPoint" />
          </mxGeometry>
        </mxCell>
        <mxCell id="fApwO7AzvbHGPvJC-P2w-56" value="Models" style="rounded=1;whiteSpace=wrap;html=1;fillColor=#FAE5C7;strokeColor=#0F8B8D;labelBackgroundColor=none;fontColor=#143642;sketch=1;curveFitting=1;jiggle=2;" vertex="1" parent="1">
          <mxGeometry x="340" y="770" width="120" height="60" as="geometry" />
        </mxCell>
        <mxCell id="fApwO7AzvbHGPvJC-P2w-57" value="Serializer" style="rounded=1;whiteSpace=wrap;html=1;fillColor=#FAE5C7;strokeColor=#0F8B8D;labelBackgroundColor=none;fontColor=#143642;sketch=1;curveFitting=1;jiggle=2;" vertex="1" parent="1">
          <mxGeometry x="340" y="660" width="120" height="60" as="geometry" />
        </mxCell>
        <mxCell id="fApwO7AzvbHGPvJC-P2w-58" value="" style="shape=flexArrow;endArrow=classic;html=1;rounded=0;fillColor=#FAE5C7;strokeColor=#A8201A;labelBackgroundColor=none;fontColor=default;sketch=1;curveFitting=1;jiggle=2;" edge="1" parent="1">
          <mxGeometry width="50" height="50" relative="1" as="geometry">
            <mxPoint x="230" y="790.5" as="sourcePoint" />
            <mxPoint x="340" y="790" as="targetPoint" />
            <Array as="points">
              <mxPoint x="290" y="790.5" />
            </Array>
          </mxGeometry>
        </mxCell>
        <mxCell id="fApwO7AzvbHGPvJC-P2w-59" value="" style="shape=flexArrow;endArrow=classic;html=1;rounded=0;fillColor=#FAE5C7;strokeColor=#A8201A;labelBackgroundColor=none;fontColor=default;sketch=1;curveFitting=1;jiggle=2;" edge="1" parent="1" target="fApwO7AzvbHGPvJC-P2w-57">
          <mxGeometry width="50" height="50" relative="1" as="geometry">
            <mxPoint x="230" y="760.5" as="sourcePoint" />
            <mxPoint x="340" y="760" as="targetPoint" />
          </mxGeometry>
        </mxCell>
        <mxCell id="fApwO7AzvbHGPvJC-P2w-60" value="SQLITE" style="shape=cylinder3;whiteSpace=wrap;html=1;boundedLbl=1;backgroundOutline=1;size=15;labelBackgroundColor=none;fillColor=#FAE5C7;strokeColor=#0F8B8D;fontColor=#143642;sketch=1;curveFitting=1;jiggle=2;" vertex="1" parent="1">
          <mxGeometry x="580" y="755" width="60" height="90" as="geometry" />
        </mxCell>
        <mxCell id="fApwO7AzvbHGPvJC-P2w-61" value="" style="shape=flexArrow;endArrow=classic;html=1;rounded=0;exitX=1;exitY=0.5;exitDx=0;exitDy=0;entryX=0;entryY=0;entryDx=0;entryDy=52.5;entryPerimeter=0;fillColor=#FAE5C7;strokeColor=#A8201A;labelBackgroundColor=none;fontColor=default;sketch=1;curveFitting=1;jiggle=2;" edge="1" parent="1">
          <mxGeometry width="50" height="50" relative="1" as="geometry">
            <mxPoint x="460" y="798.5" as="sourcePoint" />
            <mxPoint x="580" y="801.5" as="targetPoint" />
          </mxGeometry>
        </mxCell>
        <mxCell id="fApwO7AzvbHGPvJC-P2w-66" value="" style="shape=flexArrow;endArrow=classic;html=1;rounded=0;entryX=0;entryY=0.5;entryDx=0;entryDy=0;fillColor=#FAE5C7;strokeColor=#A8201A;exitX=0;exitY=0.5;exitDx=0;exitDy=0;labelBackgroundColor=none;fontColor=default;sketch=1;curveFitting=1;jiggle=2;" edge="1" parent="1">
          <mxGeometry width="50" height="50" relative="1" as="geometry">
            <mxPoint x="170" y="800" as="sourcePoint" />
            <mxPoint x="30" y="800" as="targetPoint" />
          </mxGeometry>
        </mxCell>
        <mxCell id="fApwO7AzvbHGPvJC-P2w-67" value="RESPONSE" style="text;html=1;align=center;verticalAlign=middle;resizable=0;points=[];autosize=1;strokeColor=#0F8B8D;fillColor=#FAE5C7;labelBackgroundColor=none;fontColor=#143642;sketch=1;curveFitting=1;jiggle=2;" vertex="1" parent="1">
          <mxGeometry x="-60" y="785" width="90" height="30" as="geometry" />
        </mxCell>
        <mxCell id="fApwO7AzvbHGPvJC-P2w-68" value="HTTP" style="rounded=1;whiteSpace=wrap;html=1;strokeColor=#0F8B8D;fontColor=#143642;fillColor=#FAE5C7;sketch=1;curveFitting=1;jiggle=2;" vertex="1" parent="1">
          <mxGeometry x="-70" y="730" width="120" height="30" as="geometry" />
        </mxCell>
        <mxCell id="fApwO7AzvbHGPvJC-P2w-69" value="" style="shape=flexArrow;endArrow=classic;html=1;rounded=0;entryX=0;entryY=0.5;entryDx=0;entryDy=0;fillColor=#FAE5C7;strokeColor=#A8201A;labelBackgroundColor=none;fontColor=default;sketch=1;curveFitting=1;jiggle=2;" edge="1" parent="1">
          <mxGeometry width="50" height="50" relative="1" as="geometry">
            <mxPoint x="30" y="685" as="sourcePoint" />
            <mxPoint x="170" y="685" as="targetPoint" />
          </mxGeometry>
        </mxCell>
        <mxCell id="fApwO7AzvbHGPvJC-P2w-70" value="REQUEST" style="text;html=1;align=center;verticalAlign=middle;resizable=0;points=[];autosize=1;strokeColor=#0F8B8D;fillColor=#FAE5C7;labelBackgroundColor=none;fontColor=#143642;sketch=1;curveFitting=1;jiggle=2;" vertex="1" parent="1">
          <mxGeometry x="-50" y="670" width="80" height="30" as="geometry" />
        </mxCell>
        <mxCell id="fApwO7AzvbHGPvJC-P2w-71" value="&lt;b&gt;CUSTOMER APP&lt;/b&gt;" style="text;html=1;align=center;verticalAlign=middle;resizable=0;points=[];autosize=1;strokeColor=#0F8B8D;fillColor=#FAE5C7;fontColor=#143642;labelBackgroundColor=none;sketch=1;curveFitting=1;jiggle=2;" vertex="1" parent="1">
          <mxGeometry x="570" y="660" width="120" height="30" as="geometry" />
        </mxCell>
        <mxCell id="fApwO7AzvbHGPvJC-P2w-72" value="" style="shape=flexArrow;endArrow=classic;html=1;rounded=0;strokeColor=#A8201A;fontColor=#143642;fillColor=#FAE5C7;width=17;endSize=3.49;entryX=0.5;entryY=0;entryDx=0;entryDy=0;sketch=1;curveFitting=1;jiggle=2;" edge="1" parent="1" target="fApwO7AzvbHGPvJC-P2w-42">
          <mxGeometry width="50" height="50" relative="1" as="geometry">
            <mxPoint x="330" y="558" as="sourcePoint" />
            <mxPoint x="340" y="620" as="targetPoint" />
          </mxGeometry>
        </mxCell>
        <mxCell id="fApwO7AzvbHGPvJC-P2w-73" value="&lt;b&gt;After Successful Login&lt;/b&gt;" style="text;html=1;align=center;verticalAlign=middle;resizable=0;points=[];autosize=1;strokeColor=none;fillColor=none;fontColor=#143642;sketch=1;curveFitting=1;jiggle=2;" vertex="1" parent="1">
          <mxGeometry x="365" y="578" width="150" height="30" as="geometry" />
        </mxCell>
        <mxCell id="fApwO7AzvbHGPvJC-P2w-76" value="" style="shape=flexArrow;endArrow=classic;html=1;rounded=0;endWidth=17;endSize=7.43;width=9;fillColor=#FAE5C7;strokeColor=#A8201A;entryX=0.5;entryY=0;entryDx=0;entryDy=0;labelBackgroundColor=none;fontColor=default;sketch=1;curveFitting=1;jiggle=2;" edge="1" parent="1">
          <mxGeometry width="50" height="50" relative="1" as="geometry">
            <mxPoint x="399.5" y="720" as="sourcePoint" />
            <mxPoint x="399.5" y="770" as="targetPoint" />
          </mxGeometry>
        </mxCell>
        <mxCell id="fApwO7AzvbHGPvJC-P2w-77" value="customer_customer" style="whiteSpace=wrap;html=1;fillColor=#ffe6cc;strokeColor=#d79b00;sketch=1;curveFitting=1;jiggle=2;" vertex="1" parent="1">
          <mxGeometry x="650" y="795" width="120" height="25" as="geometry" />
        </mxCell>
        <mxCell id="fApwO7AzvbHGPvJC-P2w-79" value="Login&amp;nbsp;" style="rounded=0;whiteSpace=wrap;html=1;sketch=1;hachureGap=4;jiggle=2;curveFitting=1;fontFamily=Architects Daughter;fontSource=https%3A%2F%2Ffonts.googleapis.com%2Fcss%3Ffamily%3DArchitects%2BDaughter;fillColor=#f9f7ed;strokeColor=#36393d;" vertex="1" parent="1">
          <mxGeometry x="-55" y="920" width="90" height="60" as="geometry" />
        </mxCell>
        <mxCell id="fApwO7AzvbHGPvJC-P2w-82" value="" style="shape=flexArrow;endArrow=classic;html=1;rounded=0;sketch=1;hachureGap=4;jiggle=2;curveFitting=1;fontFamily=Architects Daughter;fontSource=https%3A%2F%2Ffonts.googleapis.com%2Fcss%3Ffamily%3DArchitects%2BDaughter;exitX=1;exitY=0.5;exitDx=0;exitDy=0;" edge="1" parent="1" source="fApwO7AzvbHGPvJC-P2w-79">
          <mxGeometry width="50" height="50" relative="1" as="geometry">
            <mxPoint x="25" y="960" as="sourcePoint" />
            <mxPoint x="90" y="950" as="targetPoint" />
          </mxGeometry>
        </mxCell>
        <mxCell id="fApwO7AzvbHGPvJC-P2w-83" value="Customer Registration&amp;nbsp; page&amp;nbsp;" style="rounded=0;whiteSpace=wrap;html=1;sketch=1;hachureGap=4;jiggle=2;curveFitting=1;fontFamily=Architects Daughter;fontSource=https%3A%2F%2Ffonts.googleapis.com%2Fcss%3Ffamily%3DArchitects%2BDaughter;fillColor=#f9f7ed;strokeColor=#36393d;" vertex="1" parent="1">
          <mxGeometry x="90" y="920" width="100" height="60" as="geometry" />
        </mxCell>
        <mxCell id="fApwO7AzvbHGPvJC-P2w-85" value="" style="shape=flexArrow;endArrow=classic;html=1;rounded=0;sketch=1;hachureGap=4;jiggle=2;curveFitting=1;fontFamily=Architects Daughter;fontSource=https%3A%2F%2Ffonts.googleapis.com%2Fcss%3Ffamily%3DArchitects%2BDaughter;exitX=1;exitY=0.5;exitDx=0;exitDy=0;" edge="1" parent="1" source="fApwO7AzvbHGPvJC-P2w-83">
          <mxGeometry width="50" height="50" relative="1" as="geometry">
            <mxPoint x="390" y="930" as="sourcePoint" />
            <mxPoint x="250" y="950" as="targetPoint" />
          </mxGeometry>
        </mxCell>
        <mxCell id="fApwO7AzvbHGPvJC-P2w-86" value="Enter Details" style="rounded=0;whiteSpace=wrap;html=1;sketch=1;hachureGap=4;jiggle=2;curveFitting=1;fontFamily=Architects Daughter;fontSource=https%3A%2F%2Ffonts.googleapis.com%2Fcss%3Ffamily%3DArchitects%2BDaughter;fillColor=#f9f7ed;strokeColor=#36393d;" vertex="1" parent="1">
          <mxGeometry x="250" y="920" width="90" height="60" as="geometry" />
        </mxCell>
        <mxCell id="fApwO7AzvbHGPvJC-P2w-87" value="" style="shape=flexArrow;endArrow=classic;html=1;rounded=0;sketch=1;hachureGap=4;jiggle=2;curveFitting=1;fontFamily=Architects Daughter;fontSource=https%3A%2F%2Ffonts.googleapis.com%2Fcss%3Ffamily%3DArchitects%2BDaughter;" edge="1" parent="1">
          <mxGeometry width="50" height="50" relative="1" as="geometry">
            <mxPoint x="340" y="949.5" as="sourcePoint" />
            <mxPoint x="390" y="949.5" as="targetPoint" />
          </mxGeometry>
        </mxCell>
        <mxCell id="fApwO7AzvbHGPvJC-P2w-88" value="&amp;nbsp;Validation of input data by serializors" style="rounded=0;whiteSpace=wrap;html=1;sketch=1;hachureGap=4;jiggle=2;curveFitting=1;fontFamily=Architects Daughter;fontSource=https%3A%2F%2Ffonts.googleapis.com%2Fcss%3Ffamily%3DArchitects%2BDaughter;fillColor=#f9f7ed;strokeColor=#36393d;" vertex="1" parent="1">
          <mxGeometry x="390" y="920" width="90" height="60" as="geometry" />
        </mxCell>
        <mxCell id="fApwO7AzvbHGPvJC-P2w-89" value="" style="shape=flexArrow;endArrow=classic;html=1;rounded=0;sketch=1;hachureGap=4;jiggle=2;curveFitting=1;fontFamily=Architects Daughter;fontSource=https%3A%2F%2Ffonts.googleapis.com%2Fcss%3Ffamily%3DArchitects%2BDaughter;exitX=1;exitY=0.5;exitDx=0;exitDy=0;" edge="1" parent="1" source="fApwO7AzvbHGPvJC-P2w-88">
          <mxGeometry width="50" height="50" relative="1" as="geometry">
            <mxPoint x="390" y="930" as="sourcePoint" />
            <mxPoint x="530" y="950" as="targetPoint" />
          </mxGeometry>
        </mxCell>
        <mxCell id="fApwO7AzvbHGPvJC-P2w-90" value="Submit Data&amp;nbsp;" style="rounded=0;whiteSpace=wrap;html=1;sketch=1;hachureGap=4;jiggle=2;curveFitting=1;fontFamily=Architects Daughter;fontSource=https%3A%2F%2Ffonts.googleapis.com%2Fcss%3Ffamily%3DArchitects%2BDaughter;fillColor=#f9f7ed;strokeColor=#36393d;" vertex="1" parent="1">
          <mxGeometry x="530" y="920" width="90" height="60" as="geometry" />
        </mxCell>
        <mxCell id="fApwO7AzvbHGPvJC-P2w-91" value="" style="shape=flexArrow;endArrow=classic;html=1;rounded=0;sketch=1;hachureGap=4;jiggle=2;curveFitting=1;fontFamily=Architects Daughter;fontSource=https%3A%2F%2Ffonts.googleapis.com%2Fcss%3Ffamily%3DArchitects%2BDaughter;exitX=0.5;exitY=1;exitDx=0;exitDy=0;" edge="1" parent="1" source="fApwO7AzvbHGPvJC-P2w-90">
          <mxGeometry width="50" height="50" relative="1" as="geometry">
            <mxPoint x="390" y="930" as="sourcePoint" />
            <mxPoint x="575" y="1020" as="targetPoint" />
          </mxGeometry>
        </mxCell>
        <mxCell id="fApwO7AzvbHGPvJC-P2w-92" value="Logout" style="rounded=0;whiteSpace=wrap;html=1;sketch=1;hachureGap=4;jiggle=2;curveFitting=1;fontFamily=Architects Daughter;fontSource=https%3A%2F%2Ffonts.googleapis.com%2Fcss%3Ffamily%3DArchitects%2BDaughter;fillColor=#f9f7ed;strokeColor=#36393d;" vertex="1" parent="1">
          <mxGeometry x="530" y="1020" width="105" height="60" as="geometry" />
        </mxCell>
      </root>
    </mxGraphModel>
  </diagram>
</mxfile>
